<svg width="28" height="12" viewBox="0 0 28 12" fill="none" xmlns="http://www.w3.org/2000/svg">
<path d="M5.91987 2.08153C6.23086 1.69254 6.4419 1.17025 6.38624 0.636536C5.93099 0.659173 5.37545 0.936879 5.05382 1.32617C4.76503 1.65953 4.50942 2.20369 4.57606 2.71504C5.0871 2.75937 5.59767 2.4596 5.91987 2.08153Z" fill="#000008"/>
<path d="M6.38045 2.81488C5.6383 2.77068 5.00729 3.23609 4.65288 3.23609C4.29826 3.23609 3.75554 2.83716 3.16854 2.84791C2.40451 2.85914 1.69559 3.29112 1.30788 3.97818C0.510435 5.35263 1.09744 7.39142 1.87291 8.51084C2.2495 9.06465 2.70336 9.67444 3.30138 9.65253C3.86641 9.63036 4.08788 9.28666 4.7747 9.28666C5.46102 9.28666 5.66051 9.65253 6.25863 9.64145C6.8789 9.63036 7.26667 9.08736 7.64326 8.53301C8.07528 7.9017 8.25213 7.29211 8.26325 7.25865C8.25213 7.24756 7.06721 6.793 7.05622 5.42997C7.04503 4.28868 7.98651 3.74583 8.03082 3.71216C7.49916 2.92583 6.66845 2.83716 6.38045 2.81488Z" fill="#000008"/>
<path d="M12.8425 1.27034C14.4556 1.27034 15.5788 2.38224 15.5788 4.00107C15.5788 5.62569 14.4325 6.74336 12.8021 6.74336H11.0161V9.58354H9.72575V1.27034L12.8425 1.27034ZM11.0161 5.66024H12.4967C13.6202 5.66024 14.2596 5.0554 14.2596 4.00685C14.2596 2.95841 13.6202 2.35923 12.5025 2.35923H11.0161V5.66024Z" fill="#000008"/>
<path d="M15.9159 7.86102C15.9159 6.8009 16.7282 6.14995 18.1686 6.06927L19.8277 5.97137V5.50477C19.8277 4.8307 19.3725 4.42743 18.6122 4.42743C17.8919 4.42743 17.4425 4.77302 17.3332 5.31464H16.1579C16.2271 4.21997 17.1603 3.41344 18.6582 3.41344C20.1272 3.41344 21.0662 4.19118 21.0662 5.40676V9.58353H19.8737V8.58687H19.845C19.4936 9.26094 18.7273 9.68721 17.9324 9.68721C16.7456 9.68721 15.9159 8.94979 15.9159 7.86102ZM19.8277 7.31374V6.83558L18.3355 6.9277C17.5923 6.97959 17.1718 7.30796 17.1718 7.82646C17.1718 8.3564 17.6096 8.7021 18.2779 8.7021C19.1478 8.7021 19.8277 8.10293 19.8277 7.31374Z" fill="#000008"/>
<path d="M22.1921 11.8131V10.8049C22.2841 10.8279 22.4915 10.8279 22.5953 10.8279C23.1713 10.8279 23.4825 10.586 23.6725 9.96379C23.6725 9.95223 23.7821 9.59509 23.7821 9.58931L21.5929 3.52289H22.9409L24.4735 8.45441H24.4964L26.029 3.52289H27.3424L25.0724 9.90034C24.5541 11.3695 23.955 11.8419 22.6991 11.8419C22.5953 11.8419 22.2841 11.8303 22.1921 11.8131Z" fill="#000008"/>
</svg>
