<svg width="29" height="13" viewBox="0 0 29 13" fill="none" xmlns="http://www.w3.org/2000/svg">
<path d="M13.751 9.61412H12.7026V1.45587H15.482C16.1865 1.45587 16.7871 1.69068 17.2786 2.1603C17.781 2.62991 18.0322 3.20329 18.0322 3.88041C18.0322 4.57391 17.781 5.14728 17.2786 5.61144C16.7926 6.0756 16.1919 6.30495 15.482 6.30495H13.751V9.61412ZM13.751 2.46063V5.30564H15.5039C15.9189 5.30564 16.2684 5.16367 16.5414 4.88517C16.8199 4.60668 16.9619 4.26812 16.9619 3.88587C16.9619 3.50908 16.8199 3.17598 16.5414 2.89749C16.2684 2.60807 15.9244 2.46609 15.5039 2.46609H13.751V2.46063Z" fill="#3C4043"/>
<path d="M20.7733 3.84764C21.5487 3.84764 22.1603 4.05515 22.6081 4.47016C23.0559 4.88517 23.2797 5.45308 23.2797 6.17389V9.61412H22.2804V8.8387H22.2368C21.8054 9.4776 21.2265 9.79432 20.5057 9.79432C19.8887 9.79432 19.3754 9.61412 18.9604 9.24825C18.5454 8.88239 18.3379 8.42915 18.3379 7.88308C18.3379 7.30425 18.5563 6.84555 18.9931 6.50699C19.43 6.16297 20.0143 5.99369 20.7405 5.99369C21.3631 5.99369 21.8764 6.10836 22.275 6.33771V6.09744C22.275 5.73158 22.133 5.42578 21.8436 5.16913C21.5542 4.91247 21.2156 4.78688 20.8279 4.78688C20.2436 4.78688 19.7795 5.03261 19.4409 5.52953L18.5181 4.9507C19.0259 4.21351 19.7795 3.84764 20.7733 3.84764ZM19.4191 7.89946C19.4191 8.1725 19.5337 8.40185 19.7685 8.58205C19.9979 8.76225 20.2709 8.85508 20.5822 8.85508C21.0245 8.85508 21.4177 8.69126 21.7617 8.36362C22.1057 8.03598 22.2804 7.65374 22.2804 7.21142C21.9528 6.95477 21.4996 6.82371 20.9153 6.82371C20.4894 6.82371 20.1344 6.92747 19.8505 7.12951C19.561 7.34248 19.4191 7.59913 19.4191 7.89946Z" fill="#3C4043"/>
<path d="M28.9807 4.0279L25.4859 12.066H24.4047L25.7043 9.25377L23.3999 4.0279H24.5412L26.2012 8.03603H26.2231L27.8394 4.0279H28.9807Z" fill="#3C4043"/>
<path d="M9.58065 5.64421C9.58065 5.30237 9.55007 4.97528 9.49328 4.66074H5.09855V6.46277L7.62956 6.46331C7.5269 7.06289 7.19653 7.57401 6.69033 7.91476V9.08389H8.19692C9.07663 8.2697 9.58065 7.06617 9.58065 5.64421Z" fill="#4285F4"/>
<path d="M6.69086 7.91481C6.27149 8.19768 5.73143 8.36314 5.09963 8.36314C3.87918 8.36314 2.84384 7.54076 2.47306 6.43224H0.918959V7.63796C1.68891 9.16586 3.27141 10.2143 5.09963 10.2143C6.36322 10.2143 7.42478 9.79875 8.19746 9.0834L6.69086 7.91481Z" fill="#34A853"/>
<path d="M2.32667 5.53772C2.32667 5.22646 2.37854 4.92557 2.47301 4.64271V3.43699H0.918912C0.600556 4.06879 0.421448 4.78196 0.421448 5.53772C0.421448 6.29347 0.601102 7.00664 0.918912 7.63844L2.47301 6.43272C2.37854 6.14986 2.32667 5.84897 2.32667 5.53772Z" fill="#FABB05"/>
<path d="M5.09963 2.71183C5.78931 2.71183 6.40691 2.94937 6.89455 3.41352L8.22967 2.07948C7.41877 1.32427 6.36159 0.860657 5.09963 0.860657C3.27195 0.860657 1.68886 1.9091 0.918912 3.43699L2.47301 4.64271C2.84379 3.53419 3.87918 2.71183 5.09963 2.71183Z" fill="#E94235"/>
</svg>
